<svg width="12" height="8" viewBox="0 0 12 8" fill="none" xmlns="http://www.w3.org/2000/svg">
<path d="M5.24701 7.64L0.451011 2.158C-0.114989 1.513 0.345011 0.5 1.20401 0.5H10.796C10.9883 0.499836 11.1765 0.555088 11.3381 0.659141C11.4998 0.763194 11.628 0.911637 11.7075 1.08669C11.7869 1.26175 11.8142 1.456 11.7861 1.64618C11.758 1.83636 11.6757 2.01441 11.549 2.159L6.75301 7.639C6.65915 7.74641 6.5434 7.8325 6.41352 7.89148C6.28364 7.95046 6.14265 7.98098 6.00001 7.98098C5.85737 7.98098 5.71638 7.95046 5.5865 7.89148C5.45663 7.8325 5.34087 7.74641 5.24701 7.639V7.64Z" fill="#757575"/>
</svg>
